<?xml version="1.0" encoding="UTF-8"?>
<svg id="Layer_1" xmlns="http://www.w3.org/2000/svg" version="1.1" viewBox="0 0 1625.72 1000">
  <!-- Generator: Adobe Illustrator 30.1.0, SVG Export Plug-In . SVG Version: 2.1.1 Build 136)  -->
  <defs>
    <style>
      .st0 {
        stroke-width: 3px;
      }

      .st0, .st1 {
        fill: none;
        stroke: #dec398;
        stroke-linecap: round;
        stroke-miterlimit: 10;
      }

      .st1 {
        stroke-width: 1.5px;
      }
    </style>
  </defs>
  <path class="st1" d="M259.68,300c9.27-5.7,12.68-14.1,15.6-22,6.18-16.5,12.52-33,18.69-49.6,1.63-4.4,3.25-9,.98-13.3-4.06-7.2-18.53-10.5-30.72-9.1s-22.43,6.3-31.86,11.3c-20.48,10.8-40.47,23.1-48.76,38.9-6.99,13.2-3.41,29,12.52,39.3,16.09,10.4,45.19,15.8,63.56,4.5Z"/>
  <path class="st0" d="M229.29,329.5c-10.24,3.1-21.13,6.3-32.51,6.4-18.69.1-34.95-8-45.68-17.4-17.23-15.3-23.89-34.9-17.88-53.2,4.88-14.9,17.72-28.4,32.67-40.5,14.95-12.1,32.18-23.1,47.46-35.1,9.43-7.4,18.37-15.3,29.91-21.5s26.49-10.7,41.77-9.8c22.11,1.3,39.17,13.6,45.51,26.8,7.31,14.8,4.23,30.8,0,46-6.01,21.4-14.3,42.6-24.71,63.3-1.79,3.6-3.74,8.5-7.48,11.5-4.23,3.4-13.17,6.5-19.34,8.4-16.58,5.1-33.16,10.1-49.74,15.1Z"/>
  <path class="st1" d="M283.09,137.1c-19.02-1-37.71,4.3-52.34,11.8-14.63,7.6-25.68,17.3-37.06,26.7-20.97,17.6-43.24,34.7-60.95,53.5-17.72,18.8-31.21,39.8-32.67,61.6-1.46,21.8,9.92,44.5,35.76,59.5,25.52,14.8,63.88,20.5,97.53,14.6,34.46-6,61.28-22.8,80.3-41.5,19.02-18.7,31.37-39.5,47.46-59.1,16.09-19.7,36.74-38.8,66.97-50.4,39.99-15.4,93.46-16.5,126.95-37,12.68-7.8,21.46-20.3,12.52-29.9-5.04-5.5-15.12-8.8-25.19-9.8s-20.48-.1-30.56,1c-37.06,4.4-75.1,12-109.56,21.7-13.65,3.8-21.94,5.4-36.9,2.1-13.82-3-25.68-8.4-37.87-13.2-13.65-5.4-27.96-10.7-44.37-11.6Z"/>
  <path class="st1" d="M825.02,73c38.85-3.7,79.65-.9,115.08,9.6,27.8,8.2,51.36,20.8,77.53,30.9,32.02,12.3,67.78,20.8,97.04,35.5,35.76,18,58.68,44,76.07,70.4,31.53,47.7,51.53,100.9,116.54,136.3,15.6,8.5,33.48,16.3,42.26,28,10.4,13.8,6.18,29.7,13.82,43.9,3.9,7.1,10.4,9.6,18.21,14.6,8.94,5.7,17.07,12,25.19,18.1,32.18,24.4,60.63,51.9,69.24,83.3,6.34,23.1,1.46,46.7-3.58,69.9-4.39,21-8.94,42.2-19.83,62.3-10.89,20.1-28.77,39.3-55.92,52.4-13.82,6.7-30.4,12.2-37.71,22-8.45,11.3-2.28,26.2-15.44,35.7-9.27,6.7-26.66,9.6-28.61,18.6-1.14,5.4,4.23,10.4,12.35,12.4,14.14,3.6,28.61-1.3,37.55-8.1,7.31-5.6,11.38-12.4,15.93-18.9,15.28-22.3,35.76-43.3,60.3-62.3,17.23-13.2,36.57-25.6,49.41-40.6,8.78-10.3,15.44-24.2,14.63-36.8-1.14-17,1.3-34,5.85-50.7,3.9-13.9,6.18-27.8,4.88-41.9-3.41-36.8-31.7-72-74.61-97.8-16.25-9.7-35.11-18.9-42.42-32.1-5.04-9.1-3.58-19-4.88-28.6-1.3-9.6-.81-17.2-12.84-23.3-65.34-33.2-115.57-77.5-143.69-126.7-16.25-28.4-22.43-63.2-53.15-86.6-50.88-38.7-103.22-78.2-172.62-103.7-69.41-25.5-160.76-34.3-230.81-9.4-39.01,13.9-67.94,36.8-106.63,51-35.92,13.2-78.18,18.2-119.31,22.9-53.64,6.1-108.58,12.3-162.55,6.8-37.06-3.8-73.63-13-110.86-10.2-60.63,4.6-102.08,38.7-136.05,69.9-25.19,23.1-50.71,46.5-65.02,72.9-14.3,26.4-16.74,56.4,3.9,81.2,19.34,23.3,58.68,39.7,100.78,43.1,42.26,3.4,86.31-6.1,116.87-24.4,62.91-37.6,65.02-104.9,136.21-136.5,59.98-26.6,153.28-19.6,199.77-55,6.99-5.3,14.63-9.1,21.29-14.6,15.12-12.4,32.83-23.4,50.55-34.4,17.39-10.8,34.78-21.6,54.45-30.7s36.41-16,60.79-18.4Z"/>
  <path class="st0" d="M1111.1,0c39.34,21.3,67.78,50.2,94.6,78.3,24.54,25.7,49.25,51.4,68.43,78.8,19.18,27.4,32.67,56.6,34.13,86.3.33,5.8-1.95,13.2-11.05,14.5-5.36.7-11.05-1.3-14.14-4.1-3.25-2.8-4.55-6.2-6.01-9.5-25.84-61.5-92-115-164.98-159.9-48.76-29.9-107.28-54.8-173.44-66.5-66.16-11.8-140.44-9.5-200.42,11.3-45.51,15.8-76.07,43.3-126.3,52.3-39.01,7-78.02,14-118.33,17-40.31,3.1-81.92,2-119.96-6.7-19.34-4.5-37.71-10.9-58.03-13.4-22.43-2.7-45.68-.4-67.13,4.4-30.72,7-58.19,19.4-78.35,35.3-7.15,5.6-13.17,11.6-18.86,17.8-24.06,27-36.41,58.1-68.11,82.4-7.31,5.7-17.55,10.1-23.41,16.3-7.15,7.5-11.54,16.4-14.47,24.9-6.18,17.4-6.5,35.3-6.5,53.1,0,19.4.65,40.1,18.86,55.9,15.44,13.3,40.8,20.7,65.83,25.8,56.89,11.5,123.21,13.1,173.11-7.3,50.55-20.7,72.98-58.8,109.88-88.4,32.18-25.8,70.06-52.1,122.4-57,53.48-5,104.52-20.2,144.02-42.9,31.37-18.1,55.59-40.7,88.91-57.4,41.61-20.8,96.39-31.3,149.87-28.7,53.48,2.7,93.14,22.7,137.19,41.4,15.44,6.5,29.91,13.9,43.24,21.9,38.2,22.9,67.62,51.4,85.34,82.5,8.61,15.1,9.92,31.5,18.53,46.4,9.43,16.5,22.92,29.4,44.54,40.9,22.76,12.1,48.76,22.9,63.39,39.1,12.19,13.6,14.79,29.6,22.92,44.2,6.18,11,15.44,21.4,27.31,30.4,11.22,8.5,25.68,13.8,37.39,22,23.57,16.8,39.34,37.4,47.79,58.9,10.89,28.1,9.43,57.7.81,86.1-5.04,16.8-12.84,33.6-27.15,48.2-10.89,11.1-26.01,20.9-44.37,27.2-15.77,5.4-38.69,5.4-44.86,18.2-3.25,6.9,1.79,14,4.39,21,6.83,18.8-5.36,41.4-32.02,51.5-8.61,3.3-11.05,10.5-9.27,16.6,1.79,6.1,6.66,11.7,9.59,17.6,2.93,6,3.25,13-3.09,17.8-6.83,5.2-19.18,6.1-30.23,6.3-20.48.3-40.8,2.8-60.14-1.4-43.07-9.3-92.98-6.1-131.99,8.6-35.43,13.3-60.47,34.7-88.26,53.6-57.7,39.3-131.17,69.8-211.8,88.2"/>
  <path class="st1" d="M1066.07,0c23.73,14.9,44.54,31.7,61.28,49.8,2.76,3,5.53,6.6,2.93,9.7-2.28,2.8-8.45,3.8-13.49,3s-9.1-2.8-13.17-4.8C1060.87,36.4,1015.52,17.1,968.06,0"/>
  <path class="st1" d="M.1,231.4c29.26-19.1,51.85-42,73.47-64.8,25.68-27.1,50.71-54.8,86.31-77.3,35.43-22.5,83.22-39.6,134.26-39.4,38.2.1,74.45,9.7,111.51,15.2,69.89,10.2,145.97,5.2,209.2-15.8,43.07-14.3,81.44-36,124.51-49.2"/>
  <path class="st1" d="M.1,180.2c50.71-36.5,80.79-84,137.68-117.2,41.77-24.4,96.23-39.6,152.63-46.8,35.76-4.6,74.61-5.8,107.44,4,17.07,5.1,31.86,12.9,49.41,17.1,21.78,5.2,46,4.6,68.92,2.2,51.2-5.3,99.97-19.1,140.11-39.4"/>
  <path class="st1" d="M.1,130.3c29.26-29.3,62.91-57.1,103.54-80.7C139.4,28.8,181.01,11.3,226.53,0"/>
  <path class="st1" d="M.1,56.8C23.18,33.9,54.88,14.3,92.1,0"/>
  <path class="st1" d="M1181.48,0c62.42,39,98.34,92,132.15,143.2,18.04,27.2,36.25,55.6,33.48,85-2.6,27.1-23.08,54.4-11.22,80.5,14.3,31.8,71.52,50.3,88.26,81.6,7.64,14.2,6.34,29.9,14.63,43.9,10.08,16.8,32.67,29.2,50.71,43.3,61.6,48.1,72.82,118.4,136.05,163"/>
  <path class="st0" d="M1232.03,0c17.72,8.4,30.4,21.4,38.52,34.5,11.05,17.8,15.93,36.8,27.63,54.4,27.31,40.8,90.38,73.5,94.28,117.5,3.25,37.5-38.04,76.6-12.19,110.6,12.52,16.5,38.52,27.5,54.94,42.7,21.13,19.3,25.19,43.5,36.09,65.7,24.71,49.7,84.85,89.6,154.09,120.1"/>
  <path class="st1" d="M1625.55,568.2c-6.5-3.4-13.17-6.7-19.83-10-5.04-2.5-11.38-5.1-17.39-3.5-4.55,1.2-6.5,4.6-6.01,7.6.65,3,3.25,5.7,6.01,8.2,10.57,9.8,23.08,18.7,37.22,26.6"/>
  <path class="st1" d="M1301.76,0c14.14,13.7,19.99,30.9,23.57,47.3,3.9,18.3,4.23,45.8,24.38,60.8,8.29,6.1,21.78,10.5,31.53,16.1,11.38,6.5,22.11,13.4,31.7,21,19.34,15.2,33.65,33.6,34.62,52.9,1.95,35.8-40.96,70.9-23.57,105.1,8.94,17.5,32.02,30.8,45.84,47,22.11,25.8,19.18,57,36.41,84.1,21.29,33.6,69.89,56.7,119.47,76.9"/>
  <path class="st1" d="M1356.05,0c8.29,9.5,11.54,21.1,12.19,32,1.14,17.9-2.28,36.7,9.75,53.1,12.84,17.7,40.96,29,61.6,43.6,28.77,20.3,43.56,48,39.66,74.8-3.09,21.3-17.23,41.8-17.23,63.2,0,15.1,7.15,29.9,14.14,44.4,16.74,34.3,33.32,68.6,50.06,102.8,9.43,19.4,22.92,41.5,54.29,47.7,14.95,3,32.02,1.3,44.86-4.2"/>
  <path class="st1" d="M1408.72,0c0,18.4,5.69,36.9,17.72,53.7,28.45,39.9,90.38,70.4,102.57,113.3,9.59,33.6-13.65,67.1-19.18,101-7.8,48.5,20.81,96.2,48.93,141.8,4.55,7.5,10.4,15.7,22.27,18.9,12.19,3.2,26.82-.2,35.92-6.1,3.41-2.2,6.18-4.7,8.61-7.4"/>
  <path class="st0" d="M1461.54,0c-4.06,16.3,5.2,34,18.53,48.8,17.39,19.2,41.61,36,55.59,56.1,16.9,24.2,17.72,51.5,13.65,77.8-4.06,26.2-13,52.2-14.63,78.5-1.46,23,2.6,46.1,11.87,68.3,5.85,13.9,14.79,28.3,33.48,36.8,12.84,5.8,31.21,7.5,45.51,4"/>
  <path class="st1" d="M1625.55,283.8c-18.37-16-28.45-35.6-27.63-55.1.81-17.9,10.73-35.6,27.63-50.3"/>
  <path class="st1" d="M1506.57,0c2.28,19.7,17.07,39.2,37.87,54.7,22.59,16.6,51.2,29.4,81.11,41.1"/>
  <path class="st1" d="M1270.88,1000c1.79-10.2,6.66-20.5,12.35-30.2,9.92-16.5,22.59-32.7,27.31-50,3.74-13.6,2.44-27.5,5.85-41.1,3.41-13.8,12.84-27.9,32.02-36.2,20.81-8.9,38.85-15.3,53.8-28.6,17.72-15.8,28.77-33.9,41.94-51.3,13.17-17.4,23.24-37.4,49.58-47.5,25.19-9.7,34.3-29.6,36.09-47.8,1.79-18.2-1.63-37,7.31-54.5,1.79-3.4,4.71-7.2,10.4-8.1,5.04-.8,10.4,1.3,13.17,4,2.76,2.7,3.74,6,4.88,9.1,8.13,22,35.43,40.5,12.68,63.2-10.08,10.1-25.03,18-34.95,28.1-17.55,17.8-18.37,40.8-39.5,57-14.95,11.5-38.36,18.2-51.36,30.5-11.05,10.5-12.84,23.5-16.25,35.9-3.41,12.3-9.59,25.5-25.84,33-13.49,6.2-32.67,7.8-42.42,16.2-7.8,6.5-7.48,15.5-4.55,23.4s8.13,15.5,8.94,23.6c2.28,18.9-18.21,35.5-35.92,51.1-7.15,6.3-13.98,13.1-19.02,20.3"/>
  <path class="st1" d="M860.29,1000c73.31-20.6,144.83-44.8,192.45-84.1,19.34-16,36.9-35.4,67.78-41.4,14.63-2.8,30.23-2.2,45.35-1.2,26.17,1.7,54.29,5.2,71.85,17.2,16.9,11.7,19.83,28.9,15.12,44.3-4.71,15.4-15.93,29.6-24.54,44.4-3.9,6.7-7.31,13.8-9.1,20.8"/>
  <path class="st0" d="M948.06,1000c29.75-8.7,57.7-19.1,80.3-33.6,17.88-11.5,31.53-25.1,48.6-37.1s38.69-22.5,64.21-24.8,54.78,6.2,61.44,21.5c4.88,11.3-2.93,23-9.92,33.9-8.29,13.1-15.6,26.5-21.62,40.1"/>
  <path class="st1" d="M1029.01,1000c18.37-9.1,35.92-18.9,52.34-29.4,6.5-4.1,13-8.5,21.46-10.9s19.51-2.4,26.17,1.7c7.96,4.9,6.5,12.9,4.23,19.7-1.95,6.3-4.06,12.6-6.01,18.9"/>
  <path class="st0" d="M1391.81,1000c11.87-14.2,18.86-29.9,19.83-45.8.81-13.1-2.11-26.6,4.23-39.1,6.5-12.6,21.62-22.7,34.78-33.1,37.06-29.3,60.79-64,81.27-98.8,11.38-19.5,21.94-39.3,39.5-56.9,13.49-13.7,31.7-26.1,54.13-33.9"/>
  <path class="st1" d="M1448.22,1000c.98-16.8,3.58-33.5,10.08-49.8,9.43-23.8,27.63-46.8,57.22-63.1,20.16-11.1,45.84-19.4,58.68-34.1,18.86-21.6,3.09-48.3,8.45-72.6,3.9-17.5,20.16-33.7,42.91-44.4"/>
  <path class="st1" d="M1514.53,1000c1.63-21.3,9.59-42.4,23.41-62,20.16-28.4,51.85-52.5,87.61-74.5"/>
  <path class="st1" d="M1567.85,1000c10.89-28,30.56-54.7,57.7-78.1"/>
  <path class="st1" d="M.1,350.4c25.84,36.5,76.72,66.6,138.49,78.8,89.07,17.5,194.4-3.2,250.16-49.3,28.28-23.3,44.37-51.9,76.72-73.1,60.47-39.7,162.22-44.4,230.33-79.2,39.66-20.3,65.34-49.8,106.95-68.6,24.22-11,53.48-17.7,83.22-19.7,34.62-2.3,57.22,1.9,85.82,13.2,52.01,20.6,104.35,44.5,133.12,79.2,20.32,24.4,27.15,52,40.8,78.1,12.03,23,30.88,44,60.79,59.9,29.1,15.5,55.59,23.5,70.54,47.1,12.35,19.3,18.21,40.5,36.74,57.9,17.07,15.9,43.4,27.2,61.28,42.8,19.51,17,27.63,38.3,28.45,59.1.98,20.9-4.71,41.6-10.57,62.1-6.01,21.7-36.57,35.5-69.08,44.6-11.22,3.2-23.24,5.3-34.3,8.8-10.89,3.5-21.13,8.8-25.36,16-6.5,11,2.76,22.9,4.88,34.6,2.44,14.3-6.01,28.3-14.47,41.8-8.61,13.9-18.69,28.7-39.17,36.5-23.57,9-53.64,6.1-81.11,3.5-27.31-2.5-58.52-3.7-79.48,7.5-55.75,29.9-118.33,54.3-168.88,87.5-31.53,20.7-62.09,43.6-104.68,54.3-79.48,20-171.16-8.8-255.52,1.8-32.02,4-60.95,13.5-88.42,24.6"/>
  <path class="st1" d="M.1,387c40.47,26.8,87.45,49.7,142.39,63.1,70.22,17.1,154.91,16.5,217.16-10,46.65-19.9,75.75-51.4,107.28-80.4s70.71-58,125.16-67.7c17.39-3.1,38.52-3.5,51.36,4.3,10.89,6.6,12.52,17.2,8.29,26.2-4.39,9-13.82,16.6-23.08,24-26.01,20.6-52.99,41.1-69.89,64.9-16.9,23.9-23.08,51.9-6.18,75.8,21.29,30.3,76.56,51.2,81.76,84.1,2.11,13.6-5.2,27.2-16.25,39.1-24.54,26.2-68.27,45.3-116.71,50.9-61.44,7-116.54-8.8-163.03-31.5-50.55-24.7-113.29-40.1-177.66-43.2-54.78-2.6-110.53,3.8-160.43,17.8"/>
  <path class="st1" d="M847.29,592c.65,3.1,1.79,6.6,6.18,8.2,3.9,1.4,9.1.6,12.52-1.1,3.41-1.8,5.53-4.3,7.15-6.9,10.73-16,19.18-62.5-13.33-72.5-25.03-7.7-17.55,19.3-17.39,27.2.33,14.7.33,30.6,4.88,45.1Z"/>
  <path class="st1" d="M881.1,492.8c-14.79-15.5-33.65-32.3-27.15-49.8,5.85-15.7,30.23-26,42.75-40.1,14.95-16.8,11.87-37.2,10.24-56.4-1.46-16.2,0-34.6,19.34-45.5,10.08-5.7,23.57-8.3,36.25-11.5,25.03-6.3,48.28-15.1,68.59-25.9,15.44-8.2,30.23-19.5,26.66-31.8-2.6-8.9-14.79-16-28.61-19-13.98-3-29.26-2.4-43.72-.4-52.99,7.2-98.01,33.3-112.81,65.5-17.39,38,4.39,82.5-30.72,115.5-14.95,14.1-40.15,26-40.96,42.8-.49,9,6.5,18.1,2.28,26.6-3.25,6.5-12.03,11.2-18.04,16.9-19.34,18.6-4.39,42.7,4.39,64.1,8.94,21.7,10.73,44.6,5.2,66.7-1.63,6.4-3.74,12.9-2.76,19.4,1.14,6.5,6.18,13.1,15.6,16.1,9.92,3.1,21.78,1.6,32.18-.8,49.74-11.3,86.47-41.6,90.05-74.1,3.58-27.6-25.84-54.4-48.76-78.3Z"/>
  <path class="st1" d="M933.44,209.1c-18.86,7.7-41.29,12.1-59,20.7-27.63,13.4-40.64,35.2-46.81,56.5s-6.83,43.2-15.93,64c-9.75,22.3-28.77,42.6-47.63,62.6-12.19,12.9-24.87,26.1-44.54,34.7-21.46,9.3-50.88,11.9-74.61,5.1s-39.99-23.3-36.09-39.3c4.39-18,30.4-30.7,44.05-46.8,22.43-26.6,9.43-59.5,24.87-87.9,12.68-23.5,43.4-41.3,72.98-58.1,34.78-19.8,70.87-40.1,115.08-50.7,26.01-6.2,60.14-8.8,84.85,1.1,27.14,11.1,3.9,29.5-17.23,38.1Z"/>
  <path class="st1" d="M646.71,414.8c-1.46,5.6,1.79,11.6,8.45,15.5,6.66,4,16.42,5.8,25.36,4.8,12.35-1.4,21.78-7.4,29.26-13.6,58.19-47.7,49.58-116.4,103.22-166,4.55-4.1,9.43-8.2,11.87-13s1.63-10.5-4.39-13.9c-8.45-4.9-22.11-2.9-32.51.1-38.2,11.1-68.11,32.5-80.13,57.4-14.63,30.4-4.23,65.4-31.05,92.5-8.29,8.5-19.99,15.6-27.63,24.3-3.41,3.8-1.3,7.6-2.44,11.9Z"/>
  <path class="st1" d="M.1,425.5c28.61,16.5,63.72,28.9,100.62,37.5,51.36,11.9,106.3,16.8,160.92,19.8,22.92,1.3,47.46,2.5,65.67,11.3,23.73,11.3,29.42,31.5,32.83,49.9,1.46,8.3,2.93,17.2-2.93,24.8-7.31,9.7-25.03,15.1-42.26,16.2-17.23,1.1-34.62-1.3-51.69-3.3-86.47-10.5-175.71-12.5-263.16-5.8"/>
  <path class="st0" d="M.1,459.1c55.59,21.8,118.5,36.4,183.51,42.4,14.95,1.4,30.4,2.4,44.21,6.3s26.01,11.4,27.63,20.7c1.95,11.2-12.35,21.6-29.42,26-16.9,4.3-36.09,4.1-54.45,3.7-57.05-1.1-114.27-2.2-171.49-3.4"/>
  <path class="st1" d="M.1,490.6c42.91,8.7,85.66,17.4,128.57,26.1,6.01,1.2,12.03,2.5,16.9,5,4.71,2.5,7.96,6.5,6.18,10.2-2.76,5.8-14.63,7.4-24.54,7.8-42.26,2-84.85,2.6-127.11,1.8"/>
  <path class="st1" d="M381.59,562.2c-4.55,14.4-12.19,29.1-7.31,43.5,5.53,16,26.82,29,51.69,34.8,24.87,5.8,52.83,5.3,78.67,1.3,25.68-4,50.71-11.6,67.94-24,17.23-12.4,25.68-30.1,17.55-45.6-6.01-11.4-19.67-20.4-31.21-30-51.04-42.3-60.47-102.1-23.73-149.7,6.34-8.1,13.98-16.2,19.02-24.5,5.69-9.3-10.89-17.9-24.71-12.8-.16,0-.16.1-.33.1-9.1,3.5-16.42,8.5-23.57,13.4-26.33,18.3-52.83,36.6-79.16,54.9-15.28,10.5-30.56,21.1-44.54,32.3-12.52,9.9-14.95,14.4-9.1,26.2,13,26.2,17.07,53.1,8.78,80.1Z"/>
  <path class="st0" d="M414.1,568.1c-3.41,12.8-8.45,26.4-.65,38.5,7.15,11.3,25.19,19.3,44.54,21.5,19.34,2.1,39.82-1.2,56.24-7.9,20.97-8.5,36.41-23.3,34.78-38.7-1.63-17.1-22.27-30.8-37.06-45.3-24.38-23.8-34.46-52.9-27.96-80.7,2.28-9.6,4.55-21.7-8.94-26.6-10.08-3.7-23.08-.7-32.67,3.3-14.79,6.1-29.91,15.8-35.92,26.3-5.2,9.2,1.79,15.2,5.85,23.9,12.35,26.7,9.1,58.7,1.79,85.7Z"/>
  <path class="st1" d="M448.73,599.3c2.93,5,8.45,9.7,16.42,11.6,11.54,2.9,25.03-.8,33.48-6.4,15.93-10.4,18.53-27.5,6.18-39.5-7.96-7.8-21.29-13.3-27.96-21.5-2.76-3.4-4.39-7.1-7.64-10.4-5.53-5.4-21.46-8.7-24.22,0-1.79,5.5,4.55,13.3,4.55,19.3-.33,15.6-9.92,31.8-.81,46.9Z"/>
  <path class="st0" d="M.1,630.6c47.79-17.9,106.79-24.8,161.73-17.9,59.82,7.5,111.51,29.5,166.12,46.2,50.06,15.3,104.52,26.4,160.43,26.7s113.46-11.3,152.3-35.9c39.01-24.7,55.92-63.3,34.62-95.1-9.1-13.7-24.38-25.4-38.2-37.5-7.48-6.6-14.63-13.9-13.82-21.9,1.3-11.8,20.48-20.4,39.66-21.7,35.27-2.4,67.94,14.6,81.76,34.7s13.17,42.7,12.19,64.6c-.65,16.2-4.23,33.8-3.58,50,.65,16.2,6.66,33.5,25.84,44.6,20.64,11.9,52.66,14,79.65,8.7,27.15-5.1,49.74-16.6,69.41-29.1,33.32-21.3,51.69-52,51.85-81.6,0-29.6-18.69-59-51.2-80.8-24.22-16.2-26.17-38.8-6.01-56.9,10.73-9.6,26.66-16.7,35.6-26.8,8.45-9.7,9.75-21.1,10.4-32.1.65-11.1,1.14-22.5,8.45-32.6,7.31-10.2,28.45-18.1,46.65-17.6,27.63.8,51.85-.9,75.75,8.2,55.1,21,73.8,68.3,131.17,86.9,39.5,12.8,31.37,49.1,52.83,73.1,16.25,18.1,42.91,31.9,60.63,49.4,26.49,26.1,31.21,60.1,12.19,88.6-7.8,11.6-16.74,27.3-32.83,35s-35.27,12.4-53.15,18.3c-17.88,6-35.27,13.8-43.56,25.3-17.23,23.5,9.43,53.7-12.03,75.8-10.57,10.9-31.21,17.1-51.69,18.9-7.96.7-15.93.8-24.06.6-36.25-1-72.5,3.8-105,13.6-47.95,14.5-91.03,34.1-129.87,58.1-40.8,25.2-76.07,55.6-128.41,70.6-40.15,11.6-86.15,12.7-130.36,11.2s-88.59-5.4-132.8-3.1c-67.13,3.5-131.66,22-179.94,50.9"/>
  <path class="st1" d="M.1,653.1c31.05-8.3,66.81-10.6,100.78-8.2,47.79,3.4,92.98,15.1,136.7,27.7,43.56,12.6,86.8,26.3,133.12,34.2,84.36,14.4,177.5,8.2,255.03-16.9,16.58-5.4,33-11.7,51.53-13.9,18.53-2.2,40.31,1,50.06,10.9,8.78,8.8,5.69,20.1,3.09,30.3-9.59,38.1-8.13,77.2,4.55,115,4.71,13.9,10.89,27.8,11.05,41.9.16,14.2-6.66,29.2-23.89,38.5-24.06,13.1-59.98,11.8-92,10.4-72.01-3.2-145.8-3.6-214.56,10-58.35,11.5-112.97,34.6-143.36,66.8"/>
  <path class="st0" d="M.1,704.8c31.86-8.4,68.59-10.4,103.22-7.8,47.95,3.6,93.3,15,137.68,26.8,44.37,11.7,89.07,24,136.54,29.3,80.3,9,164.82-2.7,235.37-28,11.54-4.1,22.92-8.7,35.76-10.5s28.12-.2,36.41,6.1c10.57,8.1,6.34,19.8,2.93,29.9-9.92,29.3-8.29,60,4.71,88.8,6.66,14.6,15.77,31,2.93,44-12.52,12.8-40.31,15.6-64.53,16.7-55.27,2.5-110.86,2.7-165.63,7.4-54.78,4.8-109.72,14.4-155.07,34-33.48,14.5-61.44,34.9-75.58,58.3"/>
  <path class="st1" d="M.1,758.3c21.29-5.9,42.91-11.2,65.34-15,39.66-6.8,82.57-8.9,122.07-1.6,40.31,7.5,74.45,24.1,113.78,33.5,72.66,17.4,154.58,8.5,229.19-5.4,27.63-5.1,59-10.7,83.71-1.5,26.98,10,32.18,32.3,34.46,51.6,2.28,18.1,2.93,38.8-18.53,51.4-15.44,9.1-38.2,11.1-59.49,12.4-53.8,3.4-107.93,5-161.08,11.3-53.15,6.2-105.82,17.4-148.4,37.8-37.39,17.9-64.86,41.6-88.1,67.2"/>
  <path class="st0" d="M.1,786.9c25.52-5.7,51.36-10.6,78.02-13.3,40.31-4,83.39-2.6,119.8,8.8,36.41,11.4,65.18,33.8,67.29,59,2.6,32.5-36.41,59.7-67.94,85.8-27.31,22.6-50.71,47.1-69.57,72.8"/>
  <path class="st1" d="M.1,812.8c18.37-5.7,37.22-10.9,57.05-14.3,28.93-4.9,60.47-5.9,88.26,1,27.8,6.8,50.88,22.4,53.97,40.8,3.58,20.9-17.88,39.9-36.74,57.4-34.78,32.2-64.21,66.6-87.77,102.4"/>
  <path class="st1" d="M.1,839.9c17.55-3.2,35.27-6,53.15-8.4,23.08-3,50.39-4.5,67.13,5.7,12.52,7.5,15.28,19.7,11.22,30.2s-13.65,19.8-23.08,29c-34.62,33.9-67.46,68.4-98.34,103.6"/>
  <path class="st1" d="M430.03,808.6c23.41-4.5,46.65-9.8,70.87-11.7s50.39-.2,70.71,8.2,33,24.7,25.84,39.1c-7.64,15.3-34.46,24.2-60.3,26.1-25.84,1.9-51.85-1.4-77.86-2.3-35.92-1.1-116.71,18.9-138-9.2-22.11-29,80.79-44.8,108.74-50.2Z"/>
  <path class="st1" d="M983.01,415.4c-8.29,15.8-16.58,32.5-13.33,49.3,2.76,14.4,18.86,27.8,30.56,40,7.48,7.9,14.63,16,19.18,24.7,3.41,6.6,6.99,14.7,6.83,21.6-.33,14.9-5.04,29.9-12.52,44.1-21.13,39.9-67.46,74.9-128.57,93.9-30.88,9.6-65.99,15.7-90.38,30.8-23.57,14.7-33.48,36.1-33.65,56.7-.33,20.6,8.13,40.9,16.58,60.9,3.58,8.6,7.48,17.3,15.6,24.6s21.46,13.1,35.92,12.7c19.99-.5,33.97-11.8,46.65-21.3,40.96-30.3,99.48-51.3,162.38-58.4,25.52-2.9,51.69-3.5,76.56-7.9s49.41-13.3,60.3-27.8c18.04-23.8-5.36-54.7,16.9-77.1,20.32-20.5,66.81-22.6,99.48-35.6,25.84-10.2,43.07-28,46.65-46.8s-6.5-38.2-26.17-52.7c-17.23-12.7-41.29-21.8-55.1-35.9-13.82-14.1-15.6-31.4-23.89-47-13.98-26.3-46.16-47.2-77.37-67.1-15.6-10-31.7-20.2-51.36-27s-44.05-9.9-65.18-4.8c-31.7,7.6-45.68,30.1-56.08,50.1Z"/>
  <path class="st1" d="M1006.74,423.3c-5.53,16.2.81,33.2,10.4,48.7,9.43,15.5,21.94,30.4,29.75,46.3,16.9,35,8.29,73.8-19.18,106.2-27.47,32.3-73.15,58.3-125.65,75.1-37.06,11.9-79.97,20.5-104.35,41.4-31.21,26.6-21.62,63.9-.49,94,6.34,9.1,15.93,19,31.86,20.4,11.7,1,23.08-3.2,30.72-8.6,7.64-5.5,12.68-12.1,18.86-18.3,18.04-18.3,47.3-32.2,80.46-38.6,39.99-7.6,83.55-4.2,124.67-9.1,22.43-2.6,45.19-8.2,59-19.3,31.86-25.4,3.9-66.2,34.3-92.2,17.07-14.7,47.63-20.2,74.93-26.8s56.4-17.6,61.12-35.4c2.93-10.8-4.23-21.8-14.47-30.8-10.24-9-23.41-16.5-34.95-24.8-37.39-27.3-54.78-62.6-80.62-94.6-19.02-23.5-45.51-46.9-83.06-60.3-18.37-6.5-35.27-11-54.94-4.7-19.99,6.2-33.81,17.9-38.36,31.4Z"/>
  <path class="st1" d="M1040.55,440.4c2.44,12.9,13.49,24.5,22.43,36.2,26.66,35.7,33.97,76.9,18.86,115-15.12,38.1-52.83,72.9-105.33,95.3-36.09,15.4-78.51,25-112.97,41.9-34.46,16.9-60.63,44.9-46.49,70.5,3.25,6,9.75,12,19.83,13.4,15.77,2.2,28.28-7.6,39.34-14.9,22.11-14.4,54.13-21.5,85.82-25.1s64.21-4.1,95.9-7.6c25.84-2.9,52.66-8.5,68.27-21.5,23.89-19.8,12.19-47.8,20.64-71.9,7.31-21.2,31.86-39.8,63.88-48.7,13-3.6,26.98-5.7,39.66-9.7s24.38-10.5,26.98-19.1c2.6-8.3-3.74-16.8-12.68-23.3-8.94-6.5-20.16-11.5-30.07-17.3-34.62-20.5-49.74-50.1-68.76-77.3-14.47-20.6-33.65-41.4-63.72-54.8-10.4-4.6-28.28-13.1-42.26-10.2-16.9,3.5-21.13,19.8-19.34,29.1Z"/>
  <path class="st1" d="M943.03,717.5c36.57-14.8,73.15-29.7,109.56-44.5,12.35-5,26.82-10.2,40.8-7.5,10.08,1.9,17.23,7.6,20.48,13.7,3.25,6.1,3.41,12.7,3.41,19.2.16,16.7-1.46,35.8-22.43,46.4-17.88,9-43.4,8.4-66.48,8.9-49.9.9-99.48,8.9-143.85,23-10.4,3.3-29.42,13.1-37.55,4-6.99-7.9,7.8-17.6,15.12-22.9,22.59-16.5,52.18-28.6,80.95-40.3Z"/>
  <path class="st0" d="M1112.56,536.9c-2.28,27.4-13.65,54.1-21.46,81.1-2.28,8.1-2.11,18.9,10.4,21.9,8.94,2.2,18.69-1.4,26.82-4.7,30.72-13,61.6-26,92.33-39,3.9-1.7,8.13-3.4,10.08-6.1,2.93-3.8,1.14-8.4-2.76-11.9s-9.43-6.1-14.47-8.9c-53.31-29.7-52.99-83.1-101.92-115.5-4.88-3.2-10.4-6.2-17.07-7.4-13.98-2.4-23.57,4.6-17.72,12.5,5.36,7.1,16.09,12.9,21.46,20.6,12.35,18,15.77,38,14.3,57.4Z"/>
  <path class="st1" d="M1049.82,689.6c9.59-3.9,21.62-8.1,31.86-1.9,3.9,2.4,6.18,5.7,6.5,9.1,1.3,11.6,4.71,26.6-9.43,35.6-11.38,7.3-29.75,7.8-46.16,7.8h-43.4c-3.58,0-7.15-.4-10.24-1.4-18.69-6-3.41-21.8,9.1-26.4,20.64-7.7,41.61-14.5,61.77-22.8Z"/>
</svg>