<?xml version="1.0" encoding="UTF-8"?>
<svg id="Layer_1" xmlns="http://www.w3.org/2000/svg" version="1.1" viewBox="0 0 274.94 247.96">
  <!-- Generator: Adobe Illustrator 30.1.0, SVG Export Plug-In . SVG Version: 2.1.1 Build 136)  -->
  <defs>
    <style>
      .st0 {
        fill: #fff;
      }

      .st1 {
        fill: #d85027;
        fill-rule: evenodd;
      }
    </style>
  </defs>
  <path class="st0" d="M235.63,35.11c-16.99-16.74-38.59-25.11-64.81-25.11h-96.48v25.92l22.83,4.42v38.7c6.48-3.46,13.88-5.43,21.74-5.43s14.91,1.88,21.28,5.2v-35.67h28.43c15.42,0,27.49,5.21,36.24,15.61,8.74,10.41,13.11,23.91,13.11,40.51v35.79c0,16.79-4.37,30.39-13.11,40.8-8.74,10.41-20.82,15.61-36.24,15.61h-28.43v-30.7c-6.37,3.31-13.6,5.2-21.28,5.2s-15.26-1.97-21.74-5.43v33.73l-22.83,4.42v25.78h96.48c26.22,0,47.82-8.32,64.81-24.97,16.99-16.64,25.48-38.12,25.48-64.44v-35.5c0-26.22-8.5-47.7-25.48-64.44Z"/>
  <path class="st1" d="M109.02,147.16L27.54,211.69l64.53-81.47c-3.43-9.76-1.24-21.05,6.56-28.85,7.79-7.8,19.09-9.99,28.85-6.56L208.96,30.27l-64.53,81.49c3.42,9.75,1.24,21.04-6.56,28.84-7.8,7.81-19.1,9.99-28.85,6.56h0ZM164.43,167.17l-12.65-25.56c-1.58,2.56-3.47,4.98-5.7,7.21-2.23,2.22-4.65,4.12-7.21,5.7l25.56,12.65h0ZM72.07,74.8l12.65,25.55c1.58-2.57,3.48-4.99,5.7-7.21,2.22-2.22,4.64-4.12,7.2-5.7l-25.55-12.65h0ZM132.04,120.99c0-7.62-6.17-13.79-13.79-13.79s-13.79,6.17-13.79,13.79,6.17,13.78,13.79,13.78,13.79-6.17,13.79-13.78Z"/>
</svg>