<?xml version="1.0" encoding="UTF-8"?>
<svg id="Layer_1" xmlns="http://www.w3.org/2000/svg" version="1.1" viewBox="0 0 60 60">
  <!-- Generator: Adobe Illustrator 30.1.0, SVG Export Plug-In . SVG Version: 2.1.1 Build 136)  -->
  <defs>
    <style>
      .st0 {
        fill: #231f20;
      }

      .st1 {
        fill: #fff;
      }
    </style>
  </defs>
  <path class="st0" d="M56.58,26.63l-3.9-.29c-1.48-9.92-9.12-17.56-19.06-19.03l-.21-3.04c-.13-1.79-1.61-3.17-3.41-3.17s-3.28,1.39-3.41,3.17l-.21,3.04c-9.89,1.47-17.55,9.1-19.05,18.99l-3.87.25c-1.79.12-3.19,1.6-3.2,3.39s1.37,3.29,3.16,3.42l3.9.29c1.48,9.84,9.08,17.48,18.93,19l.21,3.07c.12,1.78,1.6,3.17,3.39,3.18h.02c1.78,0,3.26-1.37,3.4-3.15l.24-3.07c9.94-1.43,17.64-9.05,19.15-18.99l3.88-.25c1.79-.12,3.18-1.6,3.19-3.39s-1.37-3.29-3.16-3.42Z"/>
  <g>
    <polygon class="st1" points="33.14 31.57 56.62 30.04 33.24 28.3 38.34 21.67 31.59 26.74 30 4.23 28.4 26.87 21.58 21.63 26.71 28.46 3.38 29.96 26.69 31.68 21.54 38.39 28.32 33.29 29.88 55.77 31.63 33.31 38.3 38.43 33.14 31.57"/>
    <g>
      <path class="st1" d="M32.7,15.14c6.18,1.12,11.04,5.98,12.16,12.16h4.46c-1.19-8.61-8-15.42-16.61-16.62v4.46Z"/>
      <path class="st1" d="M15.14,27.3c1.11-6.18,5.98-11.04,12.16-12.16v-4.46c-8.61,1.19-15.42,8.01-16.61,16.62h4.46Z"/>
      <path class="st1" d="M44.86,32.71c-1.12,6.17-5.98,11.04-12.16,12.15v4.46c8.61-1.19,15.42-8,16.61-16.61h-4.46Z"/>
      <path class="st1" d="M27.3,44.86c-6.17-1.12-11.04-5.98-12.15-12.15h-4.46c1.19,8.61,8,15.42,16.61,16.61v-4.46Z"/>
    </g>
  </g>
</svg>